<?xml version="1.0" encoding="UTF-8"?>
<svg width="521px" height="480px" viewBox="0 0 521 480" version="1.1" xmlns="http://www.w3.org/2000/svg" xmlns:xlink="http://www.w3.org/1999/xlink">
    <!-- Generator: Sketch 47.1 (45422) - http://www.bohemiancoding.com/sketch -->
    <title>Avatar v3</title>
    <desc>Created with Sketch.</desc>
    <defs></defs>
    <g id="Page-1" stroke="none" stroke-width="1" fill="none" fill-rule="evenodd">
        <g id="Desktop" transform="translate(-748.000000, -55.000000)">
            <g id="Avatar-v3" transform="translate(740.000000, 55.000000)">
                <g id="IDE" transform="translate(197.000000, 0.000000)">
                    <g id="Code-Background" transform="translate(0.000000, 22.000000)">
                        <path d="M7.5,3.5 L25.5,3.5" id="Line-6" stroke="#8D99BB" stroke-width="2" stroke-linecap="round"></path>
                        <path d="M77.5,2.5 L95.5,2.5" id="Line-6-Copy-16" stroke="#FA6B72" stroke-width="3" stroke-linecap="round"></path>
                        <path d="M77.5,12.5 L95.5,12.5" id="Line-6-Copy-18" stroke="#FA6B72" stroke-width="3" stroke-linecap="round"></path>
                        <path d="M77.5,23.5 L95.5,23.5" id="Line-6-Copy-20" stroke="#FA6B72" stroke-width="3" stroke-linecap="round"></path>
                        <path d="M77.5,44.5 L95.5,44.5" id="Line-6-Copy-22" stroke="#FA6B72" stroke-width="3" stroke-linecap="round"></path>
                        <path d="M77.5,54.5 L101.5,54.5" id="Line-6-Copy-24" stroke="#6ACC84" stroke-width="3" stroke-linecap="round"></path>
                        <path d="M77.5,64.5 L91.5,64.5" id="Line-6-Copy-26" stroke="#FA6B72" stroke-width="3" stroke-linecap="round"></path>
                        <path d="M77.5,74.5 L107.5,74.5" id="Line-6-Copy-28" stroke="#7F98E3" stroke-width="3" stroke-linecap="round"></path>
                        <path d="M77.5,85.5 L95.5,85.5" id="Line-6-Copy-30" stroke="#BBC9F6" stroke-width="3" stroke-linecap="round"></path>
                        <path d="M77.5,96.5 L95.5,96.5" id="Line-6-Copy-32" stroke="#FA6B72" stroke-width="3" stroke-linecap="round"></path>
                        <path d="M77.5,108.5 L95.5,108.5" id="Line-6-Copy-34" stroke="#FA6B72" stroke-width="3" stroke-linecap="round"></path>
                        <path d="M77.5,127.5 L95.5,127.5" id="Line-6-Copy-37" stroke="#7F98E3" stroke-width="3" stroke-linecap="round"></path>
                        <path d="M77.5,139.5 L95.5,139.5" id="Line-6-Copy-40" stroke="#FA6B72" stroke-width="3" stroke-linecap="round"></path>
                        <path d="M77.5,152.5 L95.5,152.5" id="Line-6-Copy-43" stroke="#7F98E3" stroke-width="3" stroke-linecap="round"></path>
                        <path d="M102.5,2.5 L137.5,2.5" id="Line-6-Copy-17" stroke="#BBC9F6" stroke-width="3" stroke-linecap="round"></path>
                        <path d="M102.5,12.5 L137.5,12.5" id="Line-6-Copy-19" stroke="#FFE02A" stroke-width="3" stroke-linecap="round"></path>
                        <path d="M102.5,23.5 L181.5,23.5" id="Line-6-Copy-21" stroke="#7F98E3" stroke-width="3" stroke-linecap="round"></path>
                        <path d="M150.5,96.5 L229.5,96.5" id="Line-6-Copy-23" stroke="#6ACC84" stroke-width="3" stroke-linecap="round"></path>
                        <path d="M102.5,127.5 L121.5,127.5" id="Line-6-Copy-38" stroke="#6ACC84" stroke-width="3" stroke-linecap="round"></path>
                        <path d="M103.5,139.5 L164.5,139.5" id="Line-6-Copy-41" stroke="#EFF3FF" stroke-width="3" stroke-linecap="round"></path>
                        <path d="M76.5,172.5 L137.5,172.5" id="Line-6-Copy-42" stroke="#EFF3FF" stroke-width="3" stroke-linecap="round"></path>
                        <path d="M150.5,152.5 L198.5,152.5" id="Line-6-Copy-44" stroke="#6ACC84" stroke-width="3" stroke-linecap="round"></path>
                        <path d="M111.5,54.5 L210.5,54.5" id="Line-6-Copy-25" stroke="#FFE02A" stroke-width="3" stroke-linecap="round"></path>
                        <path d="M219.5,54.5 L294.5,54.5" id="Line-6-Copy-35" stroke="#7F98E3" stroke-width="3" stroke-linecap="round"></path>
                        <path d="M100.5,64.5 L202.5,64.5" id="Line-6-Copy-27" stroke="#7F98E3" stroke-width="3" stroke-linecap="round"></path>
                        <path d="M116.5,74.5 L188.5,74.5" id="Line-6-Copy-29" stroke="#FFE02A" stroke-width="3" stroke-linecap="round"></path>
                        <path d="M102.5,85.5 L152.5,85.5" id="Line-6-Copy-31" stroke="#EFF3FF" stroke-width="3" stroke-linecap="round"></path>
                        <path d="M102.5,96.5 L142.5,96.5" id="Line-6-Copy-33" stroke="#FFE02A" stroke-width="3" stroke-linecap="round"></path>
                        <path d="M102.5,152.5 L142.5,152.5" id="Line-6-Copy-45" stroke="#FFE02A" stroke-width="3" stroke-linecap="round"></path>
                        <path d="M14.5,9.5 L32.5,9.5" id="Line-6-Copy" stroke="#8D99BB" stroke-width="2" stroke-linecap="round"></path>
                        <path d="M7.5,26.5 L30,26.5" id="Line-6-Copy-2" stroke="#8D99BB" stroke-width="2" stroke-linecap="round"></path>
                        <path d="M13.5,32.5 L36,32.5" id="Line-6-Copy-3" stroke="#8D99BB" stroke-width="2" stroke-linecap="round"></path>
                        <path d="M14.5,15.5 L37,15.5" id="Line-6-Copy-4" stroke="#8D99BB" stroke-width="2" stroke-linecap="round"></path>
                        <path d="M13.5,38.5 L31,38.5" id="Line-6-Copy-5" stroke="#8D99BB" stroke-width="2" stroke-linecap="round"></path>
                        <path d="M18.5,44.5 L33,44.5" id="Line-6-Copy-6" stroke="#8D99BB" stroke-width="2" stroke-linecap="round"></path>
                        <path d="M18.5,50.5 L33,50.5" id="Line-6-Copy-7" stroke="#8D99BB" stroke-width="2" stroke-linecap="round"></path>
                        <path d="M8.5,58.5 L27,58.5" id="Line-6-Copy-8" stroke="#8D99BB" stroke-width="2" stroke-linecap="round"></path>
                        <path d="M8.5,66.5 L27,66.5" id="Line-6-Copy-9" stroke="#8D99BB" stroke-width="2" stroke-linecap="round"></path>
                        <path d="M8.5,75.5 L27,75.5" id="Line-6-Copy-10" stroke="#8D99BB" stroke-width="2" stroke-linecap="round"></path>
                        <path d="M14.5,81.5 L28,81.5" id="Line-6-Copy-11" stroke="#8D99BB" stroke-width="2" stroke-linecap="round"></path>
                        <path d="M9,88.5 L30,88.5" id="Line-6-Copy-12" stroke="#8D99BB" stroke-width="2" stroke-linecap="round"></path>
                        <path d="M9,95.5 L30,95.5" id="Line-6-Copy-13" stroke="#8D99BB" stroke-width="2" stroke-linecap="round"></path>
                        <path d="M9,103.5 L30,103.5" id="Line-6-Copy-14" stroke="#8D99BB" stroke-width="2" stroke-linecap="round"></path>
                        <path d="M14,109.5 L35,109.5" id="Line-6-Copy-15" stroke="#8D99BB" stroke-width="2" stroke-linecap="round"></path>
                        <path d="M53.5,0.5 L53.5,182.5" id="Line-7" stroke="#EFF3FF" stroke-linecap="square"></path>
                        <circle id="Oval-5" fill="#BBC9F6" cx="2.5" cy="3.5" r="2.5"></circle>
                        <circle id="Oval-5-Copy-16" fill="#E7E7E7" cx="69.5" cy="2.5" r="1.5"></circle>
                        <circle id="Oval-5-Copy-17" fill="#E7E7E7" cx="69.5" cy="12.5" r="1.5"></circle>
                        <circle id="Oval-5-Copy-18" fill="#E7E7E7" cx="69.5" cy="23.5" r="1.5"></circle>
                        <circle id="Oval-5-Copy-19" fill="#E7E7E7" cx="69.5" cy="44.5" r="1.5"></circle>
                        <circle id="Oval-5-Copy-20" fill="#E7E7E7" cx="69.5" cy="54.5" r="1.5"></circle>
                        <circle id="Oval-5-Copy-21" fill="#E7E7E7" cx="69.5" cy="64.5" r="1.5"></circle>
                        <circle id="Oval-5-Copy-22" fill="#E7E7E7" cx="69.5" cy="74.5" r="1.5"></circle>
                        <circle id="Oval-5-Copy-23" fill="#E7E7E7" cx="69.5" cy="85.5" r="1.5"></circle>
                        <circle id="Oval-5-Copy-24" fill="#E7E7E7" cx="69.5" cy="96.5" r="1.5"></circle>
                        <circle id="Oval-5-Copy-25" fill="#E7E7E7" cx="69.5" cy="108.5" r="1.5"></circle>
                        <circle id="Oval-5-Copy-26" fill="#E7E7E7" cx="69.5" cy="127.5" r="1.5"></circle>
                        <circle id="Oval-5-Copy-27" fill="#E7E7E7" cx="69.5" cy="139.5" r="1.5"></circle>
                        <circle id="Oval-5-Copy-28" fill="#E7E7E7" cx="69.5" cy="152.5" r="1.5"></circle>
                        <circle id="Oval-5-Copy-29" fill="#E7E7E7" cx="69.5" cy="172.5" r="1.5"></circle>
                        <circle id="Oval-5-Copy" fill="#BBC9F6" cx="8.5" cy="9.5" r="2.5"></circle>
                        <circle id="Oval-5-Copy-2" fill="#BBC9F6" cx="8.5" cy="15.5" r="2.5"></circle>
                        <circle id="Oval-5-Copy-3" fill="#BBC9F6" cx="2.5" cy="26.5" r="2.5"></circle>
                        <circle id="Oval-5-Copy-4" fill="#BBC9F6" cx="8.5" cy="32.5" r="2.5"></circle>
                        <circle id="Oval-5-Copy-5" fill="#BBC9F6" cx="8.5" cy="38.5" r="2.5"></circle>
                        <circle id="Oval-5-Copy-6" fill="#BBC9F6" cx="13.5" cy="44.5" r="2.5"></circle>
                        <circle id="Oval-5-Copy-7" fill="#BBC9F6" cx="13.5" cy="50.5" r="2.5"></circle>
                        <circle id="Oval-5-Copy-8" fill="#BBC9F6" cx="3.5" cy="58.5" r="2.5"></circle>
                        <circle id="Oval-5-Copy-9" fill="#BBC9F6" cx="3.5" cy="66.5" r="2.5"></circle>
                        <circle id="Oval-5-Copy-10" fill="#BBC9F6" cx="3.5" cy="75.5" r="2.5"></circle>
                        <circle id="Oval-5-Copy-11" fill="#BBC9F6" cx="9.5" cy="81.5" r="2.5"></circle>
                        <circle id="Oval-5-Copy-12" fill="#BBC9F6" cx="3.5" cy="88.5" r="2.5"></circle>
                        <circle id="Oval-5-Copy-13" fill="#BBC9F6" cx="3.5" cy="95.5" r="2.5"></circle>
                        <circle id="Oval-5-Copy-14" fill="#BBC9F6" cx="3.5" cy="103.5" r="2.5"></circle>
                        <circle id="Oval-5-Copy-15" fill="#BBC9F6" cx="8.5" cy="109.5" r="2.5"></circle>
                    </g>
                    <g id="Searchbox" transform="translate(54.000000, 0.000000)">
                        <rect id="Rectangle-2" fill="#EFF3FF" x="0" y="0" width="128" height="12" rx="6"></rect>
                        <circle id="Oval-8" stroke="#7F98E3" cx="117.5" cy="5.5" r="3.5"></circle>
                        <path d="M120.5,8.5 L121.5,9.5" id="Line-8" stroke="#7F98E3" stroke-linecap="square"></path>
                    </g>
                </g>
                <g id="Background-Image" transform="translate(0.000000, 66.000000)">
                    <g id="Plant-G/B" transform="translate(0.000000, 105.000000)">
                        <g id="plant-red" transform="translate(41.500000, 83.500000) rotate(-12.000000) translate(-41.500000, -83.500000) translate(16.000000, 8.000000)">
                            <path d="M22.2395723,151 C35.2332763,151 27.8930851,136.600152 31.4591263,106.900539 C32.2523352,100.294335 51,86.0579479 51,78.8025604 C51,63.375011 38.5305318,54.6166114 38.5305318,38.3410047 C38.5305318,30.0786272 38.5785196,20.6599566 37.9440144,13.3495903 C37.0861486,3.46580567 34.518634,-0.127437287 30.3304873,0.29852531 C21.3563529,1.21125496 15.202033,7.1071271 13.7814246,14.7704637 C13.2696685,17.5310835 16.3981836,22.2833122 14.7473295,28.0097115 C13.5401695,32.1970468 8.9796397,24.7575333 5.55100729,26.0478269 C-5.33226979,30.1435189 8.09988535,54.3841146 6.66773625,57.3969515 C1.75419638,67.7336508 -1.13809366,64.9743022 3.99030063,78.8025604 C9.11869492,92.6308187 -0.983007576,96.9132019 0.515795171,109.62312 C2.74379421,128.516656 12.7436513,151 22.2395723,151 Z" id="Oval-6" fill="#6ACC84"></path>
                            <path d="M7.65,35.3186441 C9.07528188,41.1381371 10.3362807,45.0040119 11.4329964,46.9162685 C13.7626746,50.9783445 20.2792577,58.2126311 21.4297016,60.0774087 C23.3925175,63.2589761 24.9933255,68.2228831 26.2321258,74.9691297" id="Line-3" stroke="#FFFFFF" stroke-linecap="square"></path>
                            <path d="M10.71,76.2677966 C12.1352819,82.0872896 13.3962807,85.9531644 14.4929964,87.8654211 C16.8226746,91.927497 23.3392577,99.1617837 24.4897016,101.026561 C26.4525175,104.208129 28.0533255,109.172036 29.2921258,115.918282" id="Line-3-Copy" stroke="#FFFFFF" stroke-linecap="square"></path>
                            <path d="M18.36,97.2542373 C22.0492968,89.5137354 25.701623,84.0181865 29.3169785,80.7675907 C32.932334,77.5169948 37.4400078,75.6758205 42.84,75.2440678" id="Line-4" stroke="#FFFFFF" stroke-linecap="square"></path>
                            <path d="M21.93,40.9491525 C22.7703231,35.3217522 24.6207384,31.3995573 27.4812458,29.1825678 C30.3417532,26.9655783 31.719477,24.9160218 31.6144171,23.0338983" id="Line-4-Copy" stroke="#FFFFFF" stroke-linecap="square"></path>
                            <ellipse id="Oval-7" stroke="#FFFFFF" cx="27.03" cy="9.21355932" rx="2.04" ry="2.04745763"></ellipse>
                            <ellipse id="Oval-7-Copy" stroke="#FFFFFF" cx="9.18" cy="73.1966102" rx="1.53" ry="1.53559322"></ellipse>
                            <path d="M24.75957,12.7966102 C22.3576212,20.3661887 21.1566468,27.9042687 21.1566468,35.41085 C21.1566468,43.779656 27.03,52.68692 27.03,66.2835875 C27.03,85.7501866 18.6309656,86.5062895 17.5072962,100.582383 C16.863053,108.652753 18.0795032,122.387439 21.1566468,141.786441" id="Line-2" stroke="#FFFFFF" stroke-linecap="square"></path>
                        </g>
                        <g id="plant-yellow" transform="translate(30.000000, 0.000000)">
                            <path d="M23.9271845,157 C37.0620225,157 29.6421041,142.059429 33.2468787,111.244578 C34.0487032,104.390307 53,89.6193348 53,82.0915033 C53,66.0846401 40.3950918,56.9973574 40.3950918,40.1105919 C40.3950918,31.5379572 41.8985024,20.6297123 40.3950918,14.2844283 C37.1794589,0.712550738 30.1574639,0.434776713 23.9271845,0.434776713 C14.8498543,0.434776713 11.8022394,10.6766205 12.2769353,27.0514858 C12.4969405,34.6406706 5.57039235,42.7137347 1.96744958,50.4934247 C-2.99945981,61.2182732 5.54606362,71.6711868 5.47969417,82.0915033 C5.41267335,92.6140889 0.452367252,100.88221 1.96744958,114.069393 C4.21964854,133.672393 14.3281213,157 23.9271845,157 Z" id="Oval-6" fill="#B8E986"></path>
                            <path d="M11.3203883,49.7679739 C16.8394493,52.8148774 20.6610288,56.0318285 22.7851269,59.4188274 C24.909225,62.8058262 26.6067064,69.0340705 27.8775712,78.1035602" id="Line-3" stroke="#FFFFFF" stroke-linecap="square"></path>
                            <path d="M20.0679612,101.546076 C23.7757755,93.4412679 27.4464336,87.6870716 31.0799355,84.2834868 C34.7134373,80.879902 39.2437363,78.9520731 44.6708324,78.5" id="Line-4" stroke="#FFFFFF" stroke-linecap="square"></path>
                            <path d="M23.9261314,43.3743899 C24.9266913,34.4738359 27.1299526,28.2703128 30.5359152,24.7638208 C33.9418779,21.2573288 35.5823127,18.0156564 35.4572195,15.0388036" id="Line-4-Copy" stroke="#FFFFFF" stroke-linecap="square"></path>
                            <ellipse id="Oval-7" stroke="#FFFFFF" cx="26.7572816" cy="9.23529412" rx="2.05825243" ry="2.05228758"></ellipse>
                            <path d="M26.5,13.5964052 C24.0987055,21.4548202 22.8980583,29.2805347 22.8980583,37.0735488 C22.8980583,45.7616878 28.7698116,55.008831 28.7698116,69.1243138 C28.7698116,89.3337104 20.3730651,90.1186644 19.2497018,104.731867 C18.6056341,113.110182 19.8217529,127.36895 22.8980583,147.50817" id="Line-2" stroke="#FFFFFF" stroke-linecap="square"></path>
                        </g>
                    </g>
                    <g id="Avatar" transform="translate(24.000000, 0.000000)">
                        <g id="WomanCoding2" transform="translate(198.000000, 73.000000)">
                            <path d="M111.971411,87.8870156 L103.313558,86 C97.3795245,89.2947892 96.8631962,97.7339423 95.4040076,104.181246 C93.9448189,110.628549 92.6652226,119.224954 92.6652226,119.224954 C92.6652226,119.224954 60.5630717,118.625901 58.0263283,119.07519 C55.4895849,119.52448 52.9229094,119.771589 49.9970491,121.216803 C44.6466906,123.852635 44.4895472,126.031688 45.4623396,126.945244 C45.9562189,127.416998 49.2038491,126.451025 52.5263094,124.975858 C55.2351623,123.770265 58.5127245,123.291023 60.9671547,124.301924 C63.4215849,125.312825 102.243487,133.527334 102.684985,132.97321 C103.126483,132.419087 117,97.2621884 117,97.2621884 L111.971411,87.8870156 Z" id="Shape" fill="#FA6B72" fill-rule="nonzero"></path>
                            <path d="M102.808791,50.2624868 C101.24793,49.2524219 100.781446,48.1949454 100.610668,47.8832974 C100.43989,47.5716493 99.8405055,46.1907642 99.658951,43.8700516 C99.5888123,42.9735076 99.5769025,40.6268822 99.8335061,38.1328111 C100.404798,32.5801087 104.416539,24.9636584 114.795642,22.6072695 C126.931401,19.8420433 125.129189,22.3125925 132.831866,20.9815076 C140.534542,19.6504227 152.828042,51.8154699 141.264086,58.9765042 C141.264086,58.9765042 131.257539,61.2983926 130.640594,60.9677677 C129.45937,60.3365747 117.474086,58.2476266 114.795642,52.3640066 C112.877094,48.171082 103.41411,50.6542007 102.808791,50.2624868 Z" id="Shape" fill="#3F5188" fill-rule="nonzero"></path>
                            <path d="M131.307036,24.4425446 C131.307036,24.4425446 128.58058,11.8692993 139.376899,8.43071852 C150.173217,4.99213773 155.568928,15.9058941 162.600169,15.3602063 C169.63141,14.8145185 175.609086,1.50123074 181.108548,0.110848081 C186.608009,-1.27953458 193.639251,10.8975265 200.087668,9.38006582 C201.370333,9.07938488 202.596418,8.5746152 203.719106,7.8850307 C204.946916,7.11122639 207.446332,5.07693798 208.590978,5.96925955 C209.735624,6.86158105 205.217752,11.7403059 204.767784,13.1204852 C203.370502,17.3065835 194.439604,20.303794 189.224081,19.7057799 C177.649807,18.3751987 185.337085,33.7192375 173.381734,37.7184564 C161.426382,41.7176753 157.831151,36.9799307 155.528851,35.7167591 C153.22655,34.4535876 147.980431,28.590557 140.941718,27.2674509 C133.903005,25.9443448 134.665055,29.7422091 134.665055,29.7422091 L131.307036,24.4425446 Z" id="Shape" fill="#3F5188" fill-rule="nonzero"></path>
                            <path d="M135.051203,54.6008786 C131.43345,76.4986437 145.914852,83.1466805 145.914852,83.1466805 C145.914852,83.1466805 148.180668,96.6779891 146.164092,98.4222594 C144.147516,100.16653 133.31685,106.260149 126.632693,98.4222594 C119.948536,90.5843697 118.929405,53.2545565 118.929405,53.2545565 L135.051203,54.6008786 Z" id="Shape" fill="#FFE0E2" fill-rule="nonzero"></path>
                            <polygon id="Shape" fill="#FFE0E2" fill-rule="nonzero" points="124.625502 83.4302741 120.744984 83 115 88.155741 118.94115 100.875248 130.226482 102 132 96.9725864"></polygon>
                            <path d="M97,148.661913 C98.5469638,149.062706 100.166959,149.107806 101.734491,148.793723 C104.712159,148.317745 106,138 106,138 L99.5384615,140.665478 L97,148.661913 Z" id="Shape" fill="#4A4A4A" fill-rule="nonzero"></path>
                            <path d="M100,148.127112 L105.809346,137.066907 C106.041121,136.397493 141.697196,140.971821 141.697196,140.971821 L144,150.127916 C144,150.127916 138.534579,152.984082 137.383178,155.565044 C136.231776,158.146006 122.721495,148.409753 116.396262,148.127112 C110.071028,147.84447 100,148.127112 100,148.127112 Z" id="Shape" fill="#FFE0E2" fill-rule="nonzero"></path>
                            <path d="M144.731243,159.656852 C142.846395,161.042557 135,157.783865 135,157.783865 L137.905808,151 C137.905808,151 146.623231,158.271147 144.731243,159.656852 Z" id="Shape" fill="#4A4A4A" fill-rule="nonzero"></path>
                            <path d="M102,143.178915 C118.907858,142.740285 134.071553,153.969219 134.071553,153.969219 L137.161428,155 C137.161428,155 138.898074,153.026164 140.920401,150.49673 C142.942728,147.967295 105.758972,136 105.758972,136 L102,143.178915 Z" id="Shape" fill="#FA6B72" fill-rule="nonzero"></path>
                            <path d="M136.307378,155.946615 C146.923357,169.496164 147.741115,187.079835 139.169529,193.138515 C130.597944,199.197196 102.861095,188.52702 102.861095,188.52702 L90,154.49943 C90,154.49943 95.0477941,148.433251 99.5603288,147.638424 C104.072863,146.843598 109.157828,146.32621 118.301844,149.018124 C124.489289,150.803394 130.513273,153.121411 136.307378,155.946615 L136.307378,155.946615 Z" id="Shape" fill="#3F5188" fill-rule="nonzero"></path>
                            <path d="M14.0352597,225.506024 C13.5108328,238.585163 19.0098238,244 19.0098238,244 L28,242.168188 C28,242.168188 22.8905832,233.075072 26.3967519,227.140001 C29.9029206,221.204929 14.0352597,225.506024 14.0352597,225.506024 Z" id="Shape" fill="#FFE0E2" fill-rule="nonzero"></path>
                            <path d="M14.6652862,227.548435 C16.4304631,230.383235 25.1772962,232.647001 25.1619468,231.983061 C25.2126676,230.001191 25.6731663,229.937406 25.9955282,227.979843 C26.1720459,227.345743 21.0837316,226.666883 17.6377994,227.181623 C16.2178212,227.356408 15.5836251,226.481273 14.6652862,227.548435 Z" id="Shape" fill="#FA6B72" fill-rule="nonzero"></path>
                            <path d="M162.653111,101.955591 C162.264055,102.224362 166.018227,94.6331144 161.731135,89.4742198 C160.481669,87.981052 158.605437,86.7476777 155.672558,85.8592429 C152.26132,85.4287932 148.92108,84.5553602 145.73668,83.2611309 C139.691356,80.9691184 142.167844,94.5270818 129.224268,94.2359141 C116.280691,93.9447464 120.712084,83.0203874 120.759435,83.0203874 C120.806786,83.0203874 104.874229,84.0823732 102.495005,85.8592429 C102.495005,85.8592429 114.335414,93.9671439 108.297572,106.890511 C102.259731,119.813878 109.202874,121.896847 104.017962,129.362686 C99.9253979,135.260699 97,147.743581 97,147.743581 C97,147.743581 98.2569484,137.291407 114.357859,139.81486 C123.455772,141.240836 141.232614,158.72583 141.232614,158.72583 C141.232614,158.72583 144.771523,161.592712 146.469899,158.72583 C148.168276,155.858948 143.626802,133.849655 148.228131,130.691605 C152.82946,127.533555 162.653111,101.955591 162.653111,101.955591 Z" id="Shape" fill="#F5F5F5" fill-rule="nonzero"></path>
                            <path d="M140.19082,106 C143.260773,101.604307 163.383238,93.8549927 160.749737,92.1568274 C157.835131,90.3083819 147.739416,91.3725688 142.916262,97.5490817 C140.415915,100.77259 140.840905,106.135008 140.19082,106 Z" id="Shape" fill="#FA6B72" fill-rule="nonzero"></path>
                            <path d="M115,191.315141 C103.499709,199.606346 52.4138912,183.209672 43.7849342,185.208179 C34.3110274,187.436997 32.3968048,230 29.2338509,230 C26.070897,230 15.9240213,226.285303 14.4883543,228.016352 C13.0526873,229.747401 2.9880633,177.734208 25.4128829,163.165164 C47.8377026,148.596121 90.5936608,153.967574 90.5936608,153.967574 L115,191.315141 Z" id="Shape" fill="#3F5188" fill-rule="nonzero"></path>
                            <path d="M104.544518,192.714132 C117.311812,195.680937 138.582716,195.700296 141.380254,190.217243 C144.177793,184.734191 129.402953,169.4495 116.635659,166.482696 C103.868365,163.515891 88.7290002,168.727226 85.9314617,174.210278 C83.1339232,179.693331 91.7772242,189.747328 104.544518,192.714132 Z" id="Oval-2" fill="#0F2463"></path>
                            <path d="M120,71.5525 C120.055251,72.03375 120.270731,74 120.270731,74 C121.589725,72.3399499 122.748623,70.4941474 123.723938,68.5 C124.828964,66.004375 122.259779,63 122.259779,63 L120,71.5525 Z" id="Shape" fill="#FA6B72" fill-rule="nonzero"></path>
                            <path d="M102.534044,51.1206949 C103.257701,53.4853945 103.59897,55.9540066 103.544519,58.4300631 C103.441259,61.7395409 101.464563,64.2385344 101.058898,65.7994672 C100.863479,66.5181242 101.165755,67.2808566 101.796471,67.6605795 C102.676789,68.2218875 103.75315,68.3669949 104.746763,68.0583172 C105.543342,67.8932185 105.867874,69.8068621 106.494811,71.9606493 C107.040616,73.8517794 108.493635,75.8704859 110.426076,75.9905576 C113.472253,76.1781697 120.014526,73.5365911 121.983846,71.0451021 C123.73927,68.7937567 123.746646,67.405427 125.443064,62.4974939 C127.139482,57.5895608 135.54044,60.3061843 134.972509,58.2874779 C134.574219,56.8766348 132.663905,48.7342687 131.542794,43.9389029 C131.051681,41.8078964 129.262042,40.2449745 127.117355,40.0740933 C120.434943,39.5337703 110.890747,38.3030348 107.851946,39.5187614 C104.215711,40.9596225 100.999892,46.2953112 102.534044,51.1206949 Z" id="Shape" fill="#FFE0E2" fill-rule="nonzero"></path>
                            <path d="M26.9748797,241.751445 C28.3393914,240.749518 30.2036443,240.749518 31.5681561,241.751445 C33.2738027,243.027813 35.4357846,244.148345 36.363417,244.289339 C37.9194455,244.519382 39.0939478,248.415272 36.363417,251.710082 C33.6328862,255.004892 24.8951877,260.555608 23.0997702,262.640836 C21.3043527,264.726065 8.13795773,275.998174 6.32757842,276.807035 C4.5171991,277.615896 1.64453111,278.506385 1.02361589,277.652999 C0.402700668,276.799614 -1.08599967,274.796013 1.33781395,272.391693 C3.76162757,269.987372 10.5393286,259.4796 10.7712367,257.765408 C11.0031448,256.051217 12.5965778,246.70108 12.5965778,246.70108 L13.9880264,242.782928 C14.1914703,242.19562 14.6499391,241.729916 15.2370148,241.514229 C15.8240904,241.298542 16.4777646,241.355654 17.0177934,241.669817 C18.7683255,242.716141 21.3342763,243.829253 23.7506091,243.228173 C24.9122839,242.949553 26.007673,242.447862 26.9748797,241.751445 Z" id="Shape" fill="#122769" fill-rule="nonzero"></path>
                            <path d="M83.1267337,243.584573 C84.8248785,247.942596 83.5232168,256.869757 83.5232168,256.869757 C83.5232168,256.869757 71.2472007,260.963887 71.0078146,259.787673 C70.7684286,258.611459 76.1321724,246.306452 72.9303839,241.578977 C71.5464332,239.528143 83.1267337,243.584573 83.1267337,243.584573 Z" id="Shape" fill="#FFE0E2" fill-rule="nonzero"></path>
                            <polyline id="Shape" fill="#FA6B72" fill-rule="nonzero" points="74 246.581231 74.4172876 243 79.0819672 243.868819 83.8509687 245.917255 84 250 74 246.581231"></polyline>
                            <path d="M75.2670456,246.069511 C81.3780881,245.481644 84.4864209,247.557782 87.2401623,249.790188 C87.5137891,250.014607 87.8940604,250.06334 88.2167461,249.915343 C88.5394326,249.767345 88.7467101,249.449136 88.7490617,249.098142 C88.7490617,242.892053 92.1214518,226.089474 95.0034497,218.774623 C98.4739183,209.978942 104.44916,198.757379 105.218699,194.448835 C105.988237,190.140291 108.990947,173.791635 94.4300679,171.276457 C79.8691887,168.761279 68.3713753,183.696078 70.1895991,204.345836 C71.6984985,221.513041 73.1017749,239.149051 73.5318112,244.618447 C73.5624291,245.039545 73.7636876,245.43074 74.0901712,245.703757 C74.4166547,245.976774 74.8408539,246.108608 75.2670456,246.069511 Z" id="Shape" fill="#0F2463" fill-rule="nonzero"></path>
                            <path d="M112,59.1647312 C109.319613,57.3829169 106,58.1758243 106,58.1758243 L107.198547,61 L112,59.1647312 Z" id="Shape" fill="#FA6B72" fill-rule="nonzero"></path>
                            <path d="M160.809031,91.9768267 C157.606997,90.0857989 148.888527,94.4572855 143.980736,98.9072042 C142.027075,100.680541 140.682451,102.895612 140.541989,105.534713 L139.853701,118.509265 C139.793955,119.770323 139.221762,120.951774 138.270417,121.778395 C137.319073,122.605016 136.071645,123.004629 134.818727,122.884143 L87.7607941,118.479249 C87.7607941,118.479249 78.2444681,117.578759 70.8977447,121.203229 C63.5510213,124.827699 64.6283413,130.118075 65.9600284,131.37876 C66.6408347,132.024111 71.6384022,128.519706 76.1721235,126.493605 C79.7557085,124.887732 84.8879409,125.668156 87.4765013,126.718727 C90.0650617,127.769298 137.751431,138.42509 137.751431,138.42509 C143.534544,139.543198 150.320164,139.513181 152.355101,133.832594 L163.427556,101.820194 C163.427556,101.820194 165.238013,94.5882461 160.809031,91.9768267 Z" id="Shape" fill="#FFE0E2" fill-rule="nonzero"></path>
                            <path d="M102.248792,49.8815279 C101.913766,49.2868322 101.863632,48.9729295 104.110715,49.0134419 C106.357797,49.0539542 108.973059,48.7987741 111.169473,50.1733329 C113.365886,51.5478917 115.115961,53.6857204 116.105328,55.3228283 C117.094695,56.9599362 120.015339,57.2640501 120.195224,60.837281 C120.270176,62.3846843 123.425658,57.3238532 123.425658,57.3238532 C123.425658,57.3238532 126.663587,65.6439493 134.765906,63.7078263 C140.762071,62.2875044 144,55.641893 144,55.641893 L134.301203,39.323142 L119.603103,38 L100.6003,39.0248395 L102.248792,49.8815279 Z" id="Shape" fill="#3F5188" fill-rule="nonzero"></path>
                            <path d="M123.103751,57.9235015 C122.965416,57.5331071 122.965416,57.1019363 123.103751,56.7115419 C123.865036,54.7754555 124.747274,53.3424467 126.220041,54.3104899 C127.849334,55.3700017 126.64693,60.7285401 125.159933,61.7575624 C123.523525,62.9237876 123.630247,59.5928043 123.103751,57.9235015 Z" id="Shape" fill="#FA6B72" fill-rule="nonzero"></path>
                            <path d="M85.4417864,252.904569 C86.7587107,255.159934 85.5661626,263.828051 83.7297848,272.759294 C81.893407,281.690537 76.2525813,291.847195 71.4092264,292.749341 C61.0494219,294.673918 62.2858675,285.111173 64.5758525,277.909043 C66.8658376,270.706912 69.1411901,264.955733 69.346045,262.038795 C69.6533273,257.65587 71.7091925,251.724262 73.004168,252.009941 C74.2991436,252.295621 85.4417864,252.904569 85.4417864,252.904569 Z" id="Shape" fill="#122769" fill-rule="nonzero"></path>
                            <path d="M109.5,65 C112.537566,65 115,62.3137085 115,59 C115,55.6862915 112.537566,53 109.5,53 C106.462434,53 104,55.6862915 104,59 C104,62.3137085 106.462434,65 109.5,65 Z" id="Oval" stroke="#3F5188"></path>
                            <path d="M104,60 L103,59" id="Line-2" stroke="#BBC9F6" stroke-linecap="square"></path>
                            <path d="M115,58.1899692 C119.689966,55.7386138 123.201206,54.3546692 125.53372,54.0381353 C127.866234,53.7216015 128.544246,55.3755563 127.567755,59" id="Line" stroke="#BBC9F6" stroke-linecap="square"></path>
                            <path d="M131,21 C132.890671,21.5212602 134.224005,22.0243889 135,22.5093861 C135.775995,22.9943833 137.109329,24.1579212 139,26" id="Line-5" stroke="#FFE02A" stroke-linecap="square"></path>
                            <polygon id="Star-2" fill="#FA6B72" points="138.377641 24.75 136.908178 25.5225425 137.188821 23.8862712 136 22.7274575 137.64291 22.4887288 138.377641 21 139.112373 22.4887288 140.755283 22.7274575 139.566462 23.8862712 139.847104 25.5225425"></polygon>
                            <polygon id="Star-2-Copy" fill="#FFE02A" points="136.377641 24.75 134.908178 25.5225425 135.188821 23.8862712 134 22.7274575 135.64291 22.4887288 136.377641 21 137.112373 22.4887288 138.755283 22.7274575 137.566462 23.8862712 137.847104 25.5225425"></polygon>
                        </g>
                        <g id="Desk">
                            <g id="Laptop" transform="translate(169.000000, 123.000000)">
                                <path d="M4.39701816,61.153407 L63.0039389,70.8547634 C67.3196333,71.5691516 75.987871,74.5761847 82.3649895,77.5711599 L96.7984826,84.3497627 C103.175601,87.3447379 104.846716,89.1935189 100.531021,88.4791308 L41.9241004,78.7777744 C37.6084059,78.0633862 28.9401683,75.0563531 22.5630497,72.0613779 L8.12955659,65.2827751 C1.75243807,62.2877999 0.081323688,60.4390189 4.39701816,61.153407 Z" id="Rectangle-9" fill="#3F5188"></path>
                                <path d="M5.63265306,0.10972824 L63.3673469,13.6590982 C66.4781753,14.3891578 69,18.56271 69,22.980988 L69,70.980988 C69,75.399266 66.4781753,78.3891578 63.3673469,77.6590982 L5.63265306,64.1097282 C2.52182467,63.3796687 0,59.2061165 0,54.7878385 L0,6.78783849 C0,2.36956049 2.52182467,-0.620331312 5.63265306,0.10972824 Z" id="Rectangle-8" fill="#7F98E3"></path>
                                <polygon id="Star" fill="#FFFFFF" points="32.5 44.25 28.0916106 46.5676275 28.9335381 41.6588137 25.3670761 38.1823725 30.2958053 37.4661863 32.5 33 34.7041947 37.4661863 39.6329239 38.1823725 36.0664619 41.6588137 36.9083894 46.5676275"></polygon>
                            </g>
                            <g id="Desktop" transform="translate(36.000000, 0.000000)">
                                <path d="M8,0.235236895 L152,35.2669625 C156.418278,36.3418229 160,40.7948914 160,45.2131694 L160,152.213169 C160,156.631447 156.418278,159.341823 152,158.266962 L8,123.235237 C3.581722,122.160376 0,117.707308 0,113.28903 L0,6.28902992 C0,1.87075192 3.581722,-0.839623538 8,0.235236895 Z" id="Rectangle-10" fill="#EBF0FF"></path>
                                <path d="M71.1473666,91.7618165 C72.3548299,90.2151991 72.1363268,99.5187958 72.1363268,101.202847 L42.8761271,161.19025 C44.1613022,164.608008 58.8825668,169.170674 65.9296769,171.544701 C68.7370838,172.490459 69.1840408,173.515637 67.9253385,173.369288 L35.6334505,166.286016 C32.5260661,165.652009 28,165.354699 28,161.552439 C28,160.321927 28.3832303,159.146402 29.1098056,158.144239 C54.3967522,117.396464 68.4092725,95.2689903 71.1473666,91.7618165 Z" id="Rectangle" fill="#D5DEFC"></path>
                                <path d="M4.75,3.03155406 L7.98486144,7.22388687 L7.98486144,7.22388687 C8.97178331,8.50292307 9.54834001,10.0507917 9.63865865,11.6637985 L14.9628121,106.748222 L14.9628121,106.748222 C15.0958313,109.123821 14.1645208,111.435357 12.4217486,113.055205 L7.58639426,117.549505 L7.58639426,117.549505 C5.76052621,119.246589 2.90460993,119.142188 1.20752673,117.31632 C0.431396853,116.481293 1.96795376e-14,115.3835 1.95399252e-14,114.243479 L4.54135762e-16,4.65109665 L1.77635684e-15,4.65109665 C9.46831154e-16,3.1869364 1.1869364,2 2.65109665,2 C3.47278703,2 4.24803318,2.38101245 4.75,3.03155406 Z" id="Rectangle-12" fill="#D5DEFC"></path>
                                <path d="M149.75,43.0315541 L152.984861,47.2238869 L152.984861,47.2238869 C153.971783,48.5029231 154.54834,50.0507917 154.638659,51.6637985 L159.962812,146.748222 L159.962812,146.748222 C160.095831,149.123821 159.164521,151.435357 157.421749,153.055205 L152.586394,157.549505 L152.586394,157.549505 C150.760526,159.246589 147.90461,159.142188 146.207527,157.31632 C145.431397,156.481293 145,155.3835 145,154.243479 L145,44.6510967 L145,44.6510967 C145,43.1869364 146.186936,42 147.651097,42 C148.472787,42 149.248033,42.3810125 149.75,43.0315541 Z" id="Rectangle-12-Copy" fill="#D5DEFC" transform="translate(152.487671, 100.378525) scale(-1, 1) translate(-152.487671, -100.378525) "></path>
                            </g>
                            <polygon id="Rectangle-11" fill="#EFEFEF" points="0 148 505 261.910467 505 271.910467 0 158"></polygon>
                        </g>
                    </g>
                    <g id="Plant-R/Y" transform="translate(367.000000, 105.000000)">
                        <g id="plant-red" transform="translate(79.950619, 162.737913) rotate(-12.000000) translate(-79.950619, -162.737913) translate(29.950619, 15.237913)">
                            <path d="M43.6070046,295 C69.0848555,295 54.6923237,266.867846 61.6845615,208.845424 C63.2398729,195.939264 100,168.126454 100,153.952022 C100,123.812108 75.5500623,106.701327 75.5500623,74.9046119 C75.5500623,58.762881 75.6441561,40.362167 74.4000282,26.0803255 C72.7179385,6.77094486 67.6835961,-0.248966884 59.4715438,0.583211699 C41.8752018,2.36635902 29.8079078,13.8847847 27.0224012,28.8562039 C26.0189578,34.2494678 32.1533012,43.5336233 28.9163324,54.7209595 C26.5493521,62.9015153 17.6071367,48.3673665 10.884328,50.8881387 C-10.455431,58.8896562 15.8821281,106.247111 13.0739926,112.133117 C3.43960074,132.327331 -2.23155619,126.936551 7.82411889,153.952022 C17.879794,180.967494 -1.92746584,189.333739 1.01136308,214.164373 C5.37998864,251.075587 24.9875516,295 43.6070046,295 Z" id="Oval-6" fill="#FFE02A"></path>
                            <path d="M15,69 C17.7946703,80.3692082 20.267217,87.9217451 22.41764,91.6576107 C26.9856365,99.5934545 39.7632503,113.726663 42.0190228,117.369772 C45.8676813,123.585417 49.0065207,133.283116 51.4355409,146.462869" id="Line-3" stroke="#FFFFFF" stroke-linecap="square"></path>
                            <path d="M21,149 C23.7946703,160.369208 26.267217,167.921745 28.41764,171.657611 C32.9856365,179.593454 45.7632503,193.726663 48.0190228,197.369772 C51.8676813,203.585417 55.0065207,213.283116 57.4355409,226.462869" id="Line-3-Copy" stroke="#FFFFFF" stroke-linecap="square"></path>
                            <path d="M36,190 C43.2339154,174.877827 50.3953392,164.14149 57.4842715,157.790988 C64.5732039,151.440487 73.41178,147.84349 84,147" id="Line-4" stroke="#FFFFFF" stroke-linecap="square"></path>
                            <path d="M43,80 C44.6476924,69.0060721 48.2759576,61.3435059 53.8847956,57.0123013 C59.4936337,52.6810968 62.1950529,48.6769963 61.9890532,45" id="Line-4-Copy" stroke="#FFFFFF" stroke-linecap="square"></path>
                            <circle id="Oval-7" stroke="#FFFFFF" cx="53" cy="18" r="4"></circle>
                            <circle id="Oval-7-Copy" stroke="#FFFFFF" cx="18" cy="143" r="3"></circle>
                            <path d="M48.5481764,25 C43.8384728,39.7882495 41.4836211,54.5149619 41.4836211,69.1801374 C41.4836211,85.5297915 53,102.9314 53,129.494426 C53,167.525199 36.5313051,169.002354 34.3280318,196.502007 C33.0648099,212.268624 35.4500063,239.101288 41.4836211,277" id="Line-2" stroke="#FFFFFF" stroke-linecap="square"></path>
                        </g>
                        <g id="plant-yellow" transform="translate(57.000000, 0.000000)">
                            <path d="M46.5,306 C72.0261946,306 57.6063533,276.88016 64.6118587,216.820642 C66.1701213,203.461363 103,174.672079 103,160 C103,128.80191 78.503669,111.090391 78.503669,78.177332 C78.503669,61.4688847 81.4253915,40.2082291 78.503669,27.8409876 C72.2544201,1.38879316 58.6079015,0.847399198 46.5,0.847399198 C28.8591509,0.847399198 22.9364276,20.8092094 23.8589498,52.7245519 C24.286507,67.5162115 10.8254795,83.2509733 3.8235341,98.413936 C-5.82913887,119.317144 10.7781991,139.690339 10.649217,160 C10.518969,180.508989 0.879128811,196.623926 3.8235341,222.326333 C8.20044904,260.533454 27.8452169,306 46.5,306 Z" id="Oval-6" fill="#FA6B72"></path>
                            <path d="M22,97 C32.7257222,102.938551 40.1525655,109.208532 44.2805297,115.809944 C48.4084939,122.411356 51.7073729,134.550481 54.1771667,152.227321" id="Line-3" stroke="#FFFFFF" stroke-linecap="square"></path>
                            <path d="M39,197.917829 C46.2057524,182.121197 53.3392955,170.906012 60.4006293,164.272274 C67.4619631,157.638535 76.2661291,153.881111 86.8131272,153" id="Line-4" stroke="#FFFFFF" stroke-linecap="square"></path>
                            <path d="M46.4979534,84.5386199 C48.4424378,67.1910432 52.7242475,55.1001002 59.3433825,48.2657909 C65.9625174,41.4314816 69.1505321,35.1133176 68.9074266,29.3112988" id="Line-4-Copy" stroke="#FFFFFF" stroke-linecap="square"></path>
                            <circle id="Oval-7" stroke="#FFFFFF" cx="52" cy="18" r="4"></circle>
                            <path d="M51.5,26.5 C46.8333333,41.8164012 44.5,57.0690677 44.5,72.2579995 C44.5,89.1915698 55.9111432,107.214664 55.9111432,134.72637 C55.9111432,174.115385 39.5929378,175.645295 37.4097979,204.127079 C36.1581191,220.456789 38.5215198,248.247762 44.5,287.5" id="Line-2" stroke="#FFFFFF" stroke-linecap="square"></path>
                        </g>
                    </g>
                </g>
            </g>
        </g>
    </g>
</svg>