<?xml version="1.0" encoding="UTF-8"?>
<svg width="525px" height="480px" viewBox="0 0 525 480" version="1.1" xmlns="http://www.w3.org/2000/svg" xmlns:xlink="http://www.w3.org/1999/xlink">
    <!-- Generator: Sketch 47.1 (45422) - http://www.bohemiancoding.com/sketch -->
    <title>Avatar v3</title>
    <desc>Created with Sketch.</desc>
    <defs></defs>
    <g id="Page-1" stroke="none" stroke-width="1" fill="none" fill-rule="evenodd">
        <g id="Desktop" transform="translate(-744.000000, -55.000000)">
            <g id="Avatar-v3" transform="translate(735.000000, 55.000000)">
                <g id="IDE" transform="translate(202.000000, 0.000000)">
                    <g id="Code-Background" transform="translate(0.000000, 22.000000)">
                        <path d="M7.5,3.5 L25.5,3.5" id="Line-6" stroke="#8D99BB" stroke-width="2" stroke-linecap="round"></path>
                        <path d="M77.5,2.5 L95.5,2.5" id="Line-6-Copy-16" stroke="#FA6B72" stroke-width="3" stroke-linecap="round"></path>
                        <path d="M77.5,12.5 L95.5,12.5" id="Line-6-Copy-18" stroke="#FA6B72" stroke-width="3" stroke-linecap="round"></path>
                        <path d="M77.5,23.5 L95.5,23.5" id="Line-6-Copy-20" stroke="#FA6B72" stroke-width="3" stroke-linecap="round"></path>
                        <path d="M77.5,44.5 L95.5,44.5" id="Line-6-Copy-22" stroke="#FA6B72" stroke-width="3" stroke-linecap="round"></path>
                        <path d="M77.5,54.5 L101.5,54.5" id="Line-6-Copy-24" stroke="#6ACC84" stroke-width="3" stroke-linecap="round"></path>
                        <path d="M77.5,64.5 L91.5,64.5" id="Line-6-Copy-26" stroke="#FA6B72" stroke-width="3" stroke-linecap="round"></path>
                        <path d="M77.5,74.5 L107.5,74.5" id="Line-6-Copy-28" stroke="#7F98E3" stroke-width="3" stroke-linecap="round"></path>
                        <path d="M77.5,85.5 L95.5,85.5" id="Line-6-Copy-30" stroke="#BBC9F6" stroke-width="3" stroke-linecap="round"></path>
                        <path d="M77.5,96.5 L95.5,96.5" id="Line-6-Copy-32" stroke="#FA6B72" stroke-width="3" stroke-linecap="round"></path>
                        <path d="M77.5,108.5 L95.5,108.5" id="Line-6-Copy-34" stroke="#FA6B72" stroke-width="3" stroke-linecap="round"></path>
                        <path d="M77.5,127.5 L95.5,127.5" id="Line-6-Copy-37" stroke="#7F98E3" stroke-width="3" stroke-linecap="round"></path>
                        <path d="M77.5,139.5 L95.5,139.5" id="Line-6-Copy-40" stroke="#FA6B72" stroke-width="3" stroke-linecap="round"></path>
                        <path d="M77.5,152.5 L95.5,152.5" id="Line-6-Copy-43" stroke="#7F98E3" stroke-width="3" stroke-linecap="round"></path>
                        <path d="M102.5,2.5 L137.5,2.5" id="Line-6-Copy-17" stroke="#BBC9F6" stroke-width="3" stroke-linecap="round"></path>
                        <path d="M102.5,12.5 L137.5,12.5" id="Line-6-Copy-19" stroke="#FFE02A" stroke-width="3" stroke-linecap="round"></path>
                        <path d="M102.5,23.5 L181.5,23.5" id="Line-6-Copy-21" stroke="#7F98E3" stroke-width="3" stroke-linecap="round"></path>
                        <path d="M150.5,96.5 L229.5,96.5" id="Line-6-Copy-23" stroke="#6ACC84" stroke-width="3" stroke-linecap="round"></path>
                        <path d="M102.5,127.5 L121.5,127.5" id="Line-6-Copy-38" stroke="#6ACC84" stroke-width="3" stroke-linecap="round"></path>
                        <path d="M103.5,139.5 L164.5,139.5" id="Line-6-Copy-41" stroke="#EFF3FF" stroke-width="3" stroke-linecap="round"></path>
                        <path d="M76.5,172.5 L137.5,172.5" id="Line-6-Copy-42" stroke="#EFF3FF" stroke-width="3" stroke-linecap="round"></path>
                        <path d="M150.5,152.5 L198.5,152.5" id="Line-6-Copy-44" stroke="#6ACC84" stroke-width="3" stroke-linecap="round"></path>
                        <path d="M111.5,54.5 L210.5,54.5" id="Line-6-Copy-25" stroke="#FFE02A" stroke-width="3" stroke-linecap="round"></path>
                        <path d="M219.5,54.5 L294.5,54.5" id="Line-6-Copy-35" stroke="#7F98E3" stroke-width="3" stroke-linecap="round"></path>
                        <path d="M100.5,64.5 L202.5,64.5" id="Line-6-Copy-27" stroke="#7F98E3" stroke-width="3" stroke-linecap="round"></path>
                        <path d="M116.5,74.5 L188.5,74.5" id="Line-6-Copy-29" stroke="#FFE02A" stroke-width="3" stroke-linecap="round"></path>
                        <path d="M102.5,85.5 L152.5,85.5" id="Line-6-Copy-31" stroke="#EFF3FF" stroke-width="3" stroke-linecap="round"></path>
                        <path d="M102.5,96.5 L142.5,96.5" id="Line-6-Copy-33" stroke="#FFE02A" stroke-width="3" stroke-linecap="round"></path>
                        <path d="M102.5,152.5 L142.5,152.5" id="Line-6-Copy-45" stroke="#FFE02A" stroke-width="3" stroke-linecap="round"></path>
                        <path d="M14.5,9.5 L32.5,9.5" id="Line-6-Copy" stroke="#8D99BB" stroke-width="2" stroke-linecap="round"></path>
                        <path d="M7.5,23.5 L30,23.5" id="Line-6-Copy-2" stroke="#8D99BB" stroke-width="2" stroke-linecap="round"></path>
                        <path d="M13.5,30.5 L25,30.5" id="Line-6-Copy-3" stroke="#8D99BB" stroke-width="2" stroke-linecap="round"></path>
                        <path d="M14.5,16.5 L37,16.5" id="Line-6-Copy-4" stroke="#8D99BB" stroke-width="2" stroke-linecap="round"></path>
                        <path d="M13.5,37.5 L31,37.5" id="Line-6-Copy-5" stroke="#8D99BB" stroke-width="2" stroke-linecap="round"></path>
                        <path d="M18.5,44.5 L33,44.5" id="Line-6-Copy-6" stroke="#8D99BB" stroke-width="2" stroke-linecap="round"></path>
                        <path d="M18.5,52.5 L33,52.5" id="Line-6-Copy-7" stroke="#8D99BB" stroke-width="2" stroke-linecap="round"></path>
                        <path d="M8.5,59.5 L27,59.5" id="Line-6-Copy-8" stroke="#8D99BB" stroke-width="2" stroke-linecap="round"></path>
                        <path d="M8.5,67.5 L19,67.5" id="Line-6-Copy-9" stroke="#8D99BB" stroke-width="2" stroke-linecap="round"></path>
                        <path d="M8.5,75.5 L34,75.5" id="Line-6-Copy-10" stroke="#8D99BB" stroke-width="2" stroke-linecap="round"></path>
                        <path d="M14.5,82.5 L28,82.5" id="Line-6-Copy-11" stroke="#8D99BB" stroke-width="2" stroke-linecap="round"></path>
                        <path d="M9,90.5 L30,90.5" id="Line-6-Copy-12" stroke="#8D99BB" stroke-width="2" stroke-linecap="round"></path>
                        <path d="M9,98.5 L21,98.5" id="Line-6-Copy-13" stroke="#8D99BB" stroke-width="2" stroke-linecap="round"></path>
                        <path d="M9,106.5 L26,106.5" id="Line-6-Copy-14" stroke="#8D99BB" stroke-width="2" stroke-linecap="round"></path>
                        <path d="M15,113.5 L36,113.5" id="Line-6-Copy-15" stroke="#8D99BB" stroke-width="2" stroke-linecap="round"></path>
                        <path d="M53.5,0.5 L53.5,182.5" id="Line-7" stroke="#EFF3FF" stroke-width="2" stroke-linecap="square"></path>
                        <circle id="Oval-5" fill="#BBC9F6" cx="2.5" cy="3.5" r="2.5"></circle>
                        <circle id="Oval-5-Copy-16" fill="#E7E7E7" cx="69.5" cy="2.5" r="1.5"></circle>
                        <circle id="Oval-5-Copy-17" fill="#E7E7E7" cx="69.5" cy="12.5" r="1.5"></circle>
                        <circle id="Oval-5-Copy-18" fill="#E7E7E7" cx="69.5" cy="23.5" r="1.5"></circle>
                        <circle id="Oval-5-Copy-19" fill="#E7E7E7" cx="69.5" cy="44.5" r="1.5"></circle>
                        <circle id="Oval-5-Copy-20" fill="#E7E7E7" cx="69.5" cy="54.5" r="1.5"></circle>
                        <circle id="Oval-5-Copy-21" fill="#E7E7E7" cx="69.5" cy="64.5" r="1.5"></circle>
                        <circle id="Oval-5-Copy-22" fill="#E7E7E7" cx="69.5" cy="74.5" r="1.5"></circle>
                        <circle id="Oval-5-Copy-23" fill="#E7E7E7" cx="69.5" cy="85.5" r="1.5"></circle>
                        <circle id="Oval-5-Copy-24" fill="#E7E7E7" cx="69.5" cy="96.5" r="1.5"></circle>
                        <circle id="Oval-5-Copy-25" fill="#E7E7E7" cx="69.5" cy="108.5" r="1.5"></circle>
                        <circle id="Oval-5-Copy-26" fill="#E7E7E7" cx="69.5" cy="127.5" r="1.5"></circle>
                        <circle id="Oval-5-Copy-27" fill="#E7E7E7" cx="69.5" cy="139.5" r="1.5"></circle>
                        <circle id="Oval-5-Copy-28" fill="#E7E7E7" cx="69.5" cy="152.5" r="1.5"></circle>
                        <circle id="Oval-5-Copy-29" fill="#E7E7E7" cx="69.5" cy="172.5" r="1.5"></circle>
                        <circle id="Oval-5-Copy" fill="#BBC9F6" cx="8.5" cy="9.5" r="2.5"></circle>
                        <circle id="Oval-5-Copy-2" fill="#BBC9F6" cx="8.5" cy="16.5" r="2.5"></circle>
                        <circle id="Oval-5-Copy-3" fill="#BBC9F6" cx="2.5" cy="23.5" r="2.5"></circle>
                        <circle id="Oval-5-Copy-4" fill="#BBC9F6" cx="8.5" cy="30.5" r="2.5"></circle>
                        <circle id="Oval-5-Copy-5" fill="#BBC9F6" cx="8.5" cy="37.5" r="2.5"></circle>
                        <circle id="Oval-5-Copy-6" fill="#BBC9F6" cx="13.5" cy="44.5" r="2.5"></circle>
                        <circle id="Oval-5-Copy-7" fill="#BBC9F6" cx="13.5" cy="52.5" r="2.5"></circle>
                        <circle id="Oval-5-Copy-8" fill="#BBC9F6" cx="3.5" cy="59.5" r="2.5"></circle>
                        <circle id="Oval-5-Copy-9" fill="#BBC9F6" cx="3.5" cy="67.5" r="2.5"></circle>
                        <circle id="Oval-5-Copy-10" fill="#BBC9F6" cx="3.5" cy="75.5" r="2.5"></circle>
                        <circle id="Oval-5-Copy-11" fill="#BBC9F6" cx="9.5" cy="82.5" r="2.5"></circle>
                        <circle id="Oval-5-Copy-12" fill="#BBC9F6" cx="3.5" cy="90.5" r="2.5"></circle>
                        <circle id="Oval-5-Copy-13" fill="#BBC9F6" cx="3.5" cy="98.5" r="2.5"></circle>
                        <circle id="Oval-5-Copy-14" fill="#BBC9F6" cx="3.5" cy="106.5" r="2.5"></circle>
                        <circle id="Oval-5-Copy-15" fill="#BBC9F6" cx="9.5" cy="113.5" r="2.5"></circle>
                    </g>
                    <g id="Searchbox" transform="translate(54.000000, 0.000000)">
                        <rect id="Rectangle-2" fill="#EFF3FF" x="0" y="0" width="128" height="12" rx="6"></rect>
                        <circle id="Oval-8" stroke="#7F98E3" cx="117.5" cy="5.5" r="3.5"></circle>
                        <path d="M120.5,8.5 L121.5,9.5" id="Line-8" stroke="#7F98E3" stroke-linecap="square"></path>
                    </g>
                </g>
                <g id="Background-Image" transform="translate(0.000000, 66.000000)">
                    <g id="Plant-G/B" transform="translate(0.000000, 105.000000)">
                        <g id="plant-red" transform="translate(43.950675, 83.530705) rotate(-12.000000) translate(-43.950675, -83.530705) translate(15.950675, 7.530705)">
                            <path d="M27.2395723,152 C40.2332763,152 32.8930851,137.600152 36.4591263,107.900539 C37.2523352,101.294335 56,87.0579479 56,79.8025604 C56,64.375011 43.5305318,55.6166114 43.5305318,39.3410047 C43.5305318,31.0786272 43.5785196,21.6599566 42.9440144,14.3495903 C42.0861486,4.46580567 34.7119204,-0.0395913327 30.5237738,0.386371264 C21.5496393,1.29910091 20.202033,8.1071271 18.7814246,15.7704637 C18.2696685,18.5310835 21.3981836,23.2833122 19.7473295,29.0097115 C18.5401695,33.1970468 11.8966025,25.3219161 8.46797012,26.6122096 C-2.41530697,30.7079017 -0.561024565,48.4912406 3.13676664,60.2625159 C9.08174761,79.1873292 -3.92515766,67.1338188 3.25816734,88.8016473 C10.4414923,110.469476 4.01699242,97.9132019 5.51579517,110.62312 C7.74379421,129.516656 17.7436513,152 27.2395723,152 Z" id="Oval-6" fill="#6ACC84"></path>
                            <path d="M12.65,36.3186441 C14.0752819,42.1381371 15.3362807,46.0040119 16.4329964,47.9162685 C18.7626746,51.9783445 25.2792577,59.2126311 26.4297016,61.0774087 C28.3925175,64.2589761 29.9933255,69.2228831 31.2321258,75.9691297" id="Line-3" stroke="#FFFFFF" stroke-linecap="square"></path>
                            <path d="M15.71,77.2677966 C17.1352819,83.0872896 18.3962807,86.9531644 19.4929964,88.8654211 C21.8226746,92.927497 28.3392577,100.161784 29.4897016,102.026561 C31.4525175,105.208129 33.0533255,110.172036 34.2921258,116.918282" id="Line-3-Copy" stroke="#FFFFFF" stroke-linecap="square"></path>
                            <path d="M23.36,98.2542373 C27.0492968,90.5137354 30.701623,85.0181865 34.3169785,81.7675907 C37.932334,78.5169948 42.4400078,76.6758205 47.84,76.2440678" id="Line-4" stroke="#FFFFFF" stroke-linecap="square"></path>
                            <path d="M26.93,41.9491525 C27.7703231,36.3217522 29.6207384,32.3995573 32.4812458,30.1825678 C35.3417532,27.9655783 36.719477,25.9160218 36.6144171,24.0338983" id="Line-4-Copy" stroke="#FFFFFF" stroke-linecap="square"></path>
                            <ellipse id="Oval-7" stroke="#FFFFFF" cx="32.03" cy="10.2135593" rx="2.04" ry="2.04745763"></ellipse>
                            <ellipse id="Oval-7-Copy" stroke="#FFFFFF" cx="14.18" cy="74.1966102" rx="1.53" ry="1.53559322"></ellipse>
                            <path d="M29.75957,13.7966102 C27.3576212,21.3661887 26.1566468,28.9042687 26.1566468,36.41085 C26.1566468,44.779656 32.03,53.68692 32.03,67.2835875 C32.03,86.7501866 23.6309656,87.5062895 22.5072962,101.582383 C21.863053,109.652753 23.0795032,123.387439 26.1566468,142.786441" id="Line-2" stroke="#FFFFFF" stroke-linecap="square"></path>
                        </g>
                        <g id="plant-yellow" transform="translate(34.000000, 0.000000)">
                            <path d="M24.9271845,157 C38.0620225,157 30.6421041,142.059429 34.2468787,111.244578 C35.0487032,104.390307 54,89.6193348 54,82.0915033 C54,66.0846401 39.3847271,45.8878923 39.3847271,29.0011268 C39.3847271,20.4284921 42.8985024,20.6297123 41.3950918,14.2844283 C38.1794589,0.712550738 31.1574639,0.434776713 24.9271845,0.434776713 C15.8498543,0.434776713 12.8022394,10.6766205 13.2769353,27.0514858 C13.4969405,34.6406706 5.13688962,44.8283835 1.53394685,52.6080735 C-3.43296254,63.332922 6.54606362,71.6711868 6.47969417,82.0915033 C6.41267335,92.6140889 1.45236725,100.88221 2.96744958,114.069393 C5.21964854,133.672393 15.3281213,157 24.9271845,157 Z" id="Oval-6" fill="#B8E986"></path>
                            <path d="M12.3203883,49.7679739 C17.8394493,52.8148774 21.6610288,56.0318285 23.7851269,59.4188274 C25.909225,62.8058262 27.6067064,69.0340705 28.8775712,78.1035602" id="Line-3" stroke="#FFFFFF" stroke-linecap="square"></path>
                            <path d="M21.0679612,101.546076 C24.7757755,93.4412679 28.4464336,87.6870716 32.0799355,84.2834868 C35.7134373,80.879902 40.2437363,78.9520731 45.6708324,78.5" id="Line-4" stroke="#FFFFFF" stroke-linecap="square"></path>
                            <path d="M24.9261314,43.3743899 C25.9266913,34.4738359 28.1299526,28.2703128 31.5359152,24.7638208 C34.9418779,21.2573288 36.5823127,18.0156564 36.4572195,15.0388036" id="Line-4-Copy" stroke="#FFFFFF" stroke-linecap="square"></path>
                            <ellipse id="Oval-7" stroke="#FFFFFF" cx="27.7572816" cy="9.23529412" rx="2.05825243" ry="2.05228758"></ellipse>
                            <path d="M27.5,13.5964052 C25.0987055,21.4548202 23.8980583,29.2805347 23.8980583,37.0735488 C23.8980583,45.7616878 29.7698116,55.008831 29.7698116,69.1243138 C29.7698116,89.3337104 21.3730651,90.1186644 20.2497018,104.731867 C19.6056341,113.110182 20.8217529,127.36895 23.8980583,147.50817" id="Line-2" stroke="#FFFFFF" stroke-linecap="square"></path>
                        </g>
                    </g>
                    <g id="Avatar" transform="translate(29.000000, 0.000000)">
                        <g id="WomanCoding2" transform="translate(138.000000, 73.000000)">
                            <path d="M171.971411,87.8870156 L163.313558,86 C157.379525,89.2947892 156.863196,97.7339423 155.404008,104.181246 C153.944819,110.628549 152.665223,119.224954 152.665223,119.224954 C152.665223,119.224954 120.563072,118.625901 118.026328,119.07519 C115.489585,119.52448 112.922909,119.771589 109.997049,121.216803 C104.646691,123.852635 104.489547,126.031688 105.46234,126.945244 C105.956219,127.416998 109.203849,126.451025 112.526309,124.975858 C115.235162,123.770265 118.512725,123.291023 120.967155,124.301924 C123.421585,125.312825 162.243487,133.527334 162.684985,132.97321 C163.126483,132.419087 177,97.2621884 177,97.2621884 L171.971411,87.8870156 Z" id="Shape" fill="#FA6B72" fill-rule="nonzero"></path>
                            <path d="M162.808791,50.2624868 C161.24793,49.2524219 160.781446,48.1949454 160.610668,47.8832974 C160.43989,47.5716493 159.840505,46.1907642 159.658951,43.8700516 C159.588812,42.9735076 159.576902,40.6268822 159.833506,38.1328111 C160.404798,32.5801087 164.416539,24.9636584 174.795642,22.6072695 C186.931401,19.8420433 185.129189,22.3125925 192.831866,20.9815076 C200.534542,19.6504227 212.828042,51.8154699 201.264086,58.9765042 C201.264086,58.9765042 191.257539,61.2983926 190.640594,60.9677677 C189.45937,60.3365747 177.474086,58.2476266 174.795642,52.3640066 C172.877094,48.171082 163.41411,50.6542007 162.808791,50.2624868 Z" id="Shape" fill="#3F5188" fill-rule="nonzero"></path>
                            <path d="M191.307036,24.4425446 C191.307036,24.4425446 188.58058,11.8692993 199.376899,8.43071852 C210.173217,4.99213773 215.568928,15.9058941 222.600169,15.3602063 C229.63141,14.8145185 235.609086,1.50123074 241.108548,0.110848081 C246.608009,-1.27953458 253.639251,10.8975265 260.087668,9.38006582 C261.370333,9.07938488 262.596418,8.5746152 263.719106,7.8850307 C264.946916,7.11122639 267.446332,5.07693798 268.590978,5.96925955 C269.735624,6.86158105 265.217752,11.7403059 264.767784,13.1204852 C263.370502,17.3065835 254.439604,20.303794 249.224081,19.7057799 C237.649807,18.3751987 245.337085,33.7192375 233.381734,37.7184564 C221.426382,41.7176753 217.831151,36.9799307 215.528851,35.7167591 C213.22655,34.4535876 207.980431,28.590557 200.941718,27.2674509 C193.903005,25.9443448 194.665055,29.7422091 194.665055,29.7422091 L191.307036,24.4425446 Z" id="Shape" fill="#3F5188" fill-rule="nonzero"></path>
                            <path d="M195.051203,54.6008786 C191.43345,76.4986437 205.914852,83.1466805 205.914852,83.1466805 C205.914852,83.1466805 208.180668,96.6779891 206.164092,98.4222594 C204.147516,100.16653 193.31685,106.260149 186.632693,98.4222594 C179.948536,90.5843697 178.929405,53.2545565 178.929405,53.2545565 L195.051203,54.6008786 Z" id="Shape" fill="#FFE0E2" fill-rule="nonzero"></path>
                            <polygon id="Shape" fill="#FFE0E2" fill-rule="nonzero" points="184.625502 83.4302741 180.744984 83 175 88.155741 178.94115 100.875248 190.226482 102 192 96.9725864"></polygon>
                            <path d="M157,148.661913 C158.546964,149.062706 160.166959,149.107806 161.734491,148.793723 C164.712159,148.317745 166,138 166,138 L159.538462,140.665478 L157,148.661913 Z" id="Shape" fill="#4A4A4A" fill-rule="nonzero"></path>
                            <path d="M160,148.127112 L165.809346,137.066907 C166.041121,136.397493 201.697196,140.971821 201.697196,140.971821 L204,150.127916 C204,150.127916 198.534579,152.984082 197.383178,155.565044 C196.231776,158.146006 182.721495,148.409753 176.396262,148.127112 C170.071028,147.84447 160,148.127112 160,148.127112 Z" id="Shape" fill="#FFE0E2" fill-rule="nonzero"></path>
                            <path d="M204.731243,159.656852 C202.846395,161.042557 195,157.783865 195,157.783865 L197.905808,151 C197.905808,151 206.623231,158.271147 204.731243,159.656852 Z" id="Shape" fill="#4A4A4A" fill-rule="nonzero"></path>
                            <path d="M162,143.178915 C178.907858,142.740285 194.071553,153.969219 194.071553,153.969219 L197.161428,155 C197.161428,155 198.898074,153.026164 200.920401,150.49673 C202.942728,147.967295 165.758972,136 165.758972,136 L162,143.178915 Z" id="Shape" fill="#FA6B72" fill-rule="nonzero"></path>
                            <path d="M222.653111,101.955591 C222.264055,102.224362 226.018227,94.6331144 221.731135,89.4742198 C220.481669,87.981052 218.605437,86.7476777 215.672558,85.8592429 C212.26132,85.4287932 208.92108,84.5553602 205.73668,83.2611309 C199.691356,80.9691184 202.167844,94.5270818 189.224268,94.2359141 C176.280691,93.9447464 180.712084,83.0203874 180.759435,83.0203874 C180.806786,83.0203874 164.874229,84.0823732 162.495005,85.8592429 C162.495005,85.8592429 174.335414,93.9671439 168.297572,106.890511 C162.259731,119.813878 169.202874,121.896847 164.017962,129.362686 C159.925398,135.260699 157,147.743581 157,147.743581 C157,147.743581 158.256948,137.291407 174.357859,139.81486 C183.455772,141.240836 201.232614,158.72583 201.232614,158.72583 C201.232614,158.72583 204.771523,161.592712 206.469899,158.72583 C208.168276,155.858948 203.626802,133.849655 208.228131,130.691605 C212.82946,127.533555 222.653111,101.955591 222.653111,101.955591 Z" id="Shape" fill="#F5F5F5" fill-rule="nonzero"></path>
                            <path d="M200.19082,106 C203.260773,101.604307 223.383238,93.8549927 220.749737,92.1568274 C217.835131,90.3083819 207.739416,91.3725688 202.916262,97.5490817 C200.415915,100.77259 200.840905,106.135008 200.19082,106 Z" id="Shape" fill="#FA6B72" fill-rule="nonzero"></path>
                            <path d="M180,71.5525 C180.055251,72.03375 180.270731,74 180.270731,74 C181.589725,72.3399499 182.748623,70.4941474 183.723938,68.5 C184.828964,66.004375 182.259779,63 182.259779,63 L180,71.5525 Z" id="Shape" fill="#FA6B72" fill-rule="nonzero"></path>
                            <path d="M162.534044,51.1206949 C163.257701,53.4853945 163.59897,55.9540066 163.544519,58.4300631 C163.441259,61.7395409 161.464563,64.2385344 161.058898,65.7994672 C160.863479,66.5181242 161.165755,67.2808566 161.796471,67.6605795 C162.676789,68.2218875 163.75315,68.3669949 164.746763,68.0583172 C165.543342,67.8932185 165.867874,69.8068621 166.494811,71.9606493 C167.040616,73.8517794 168.493635,75.8704859 170.426076,75.9905576 C173.472253,76.1781697 180.014526,73.5365911 181.983846,71.0451021 C183.73927,68.7937567 183.746646,67.405427 185.443064,62.4974939 C187.139482,57.5895608 195.54044,60.3061843 194.972509,58.2874779 C194.574219,56.8766348 192.663905,48.7342687 191.542794,43.9389029 C191.051681,41.8078964 189.262042,40.2449745 187.117355,40.0740933 C180.434943,39.5337703 170.890747,38.3030348 167.851946,39.5187614 C164.215711,40.9596225 160.999892,46.2953112 162.534044,51.1206949 Z" id="Shape" fill="#FFE0E2" fill-rule="nonzero"></path>
                            <path d="M172,59.1647312 C169.319613,57.3829169 166,58.1758243 166,58.1758243 L167.198547,61 L172,59.1647312 Z" id="Shape" fill="#FA6B72" fill-rule="nonzero"></path>
                            <path d="M220.809031,91.9768267 C217.606997,90.0857989 208.888527,94.4572855 203.980736,98.9072042 C202.027075,100.680541 200.682451,102.895612 200.541989,105.534713 L199.853701,118.509265 C199.793955,119.770323 199.221762,120.951774 198.270417,121.778395 C197.319073,122.605016 196.071645,123.004629 194.818727,122.884143 L147.760794,118.479249 C147.760794,118.479249 138.244468,117.578759 130.897745,121.203229 C123.551021,124.827699 124.628341,130.118075 125.960028,131.37876 C126.640835,132.024111 131.638402,128.519706 136.172124,126.493605 C139.755709,124.887732 144.887941,125.668156 147.476501,126.718727 C150.065062,127.769298 197.751431,138.42509 197.751431,138.42509 C203.534544,139.543198 210.320164,139.513181 212.355101,133.832594 L223.427556,101.820194 C223.427556,101.820194 225.238013,94.5882461 220.809031,91.9768267 Z" id="Shape" fill="#FFE0E2" fill-rule="nonzero"></path>
                            <path d="M162.248792,49.8815279 C161.913766,49.2868322 161.863632,48.9729295 164.110715,49.0134419 C166.357797,49.0539542 168.973059,48.7987741 171.169473,50.1733329 C173.365886,51.5478917 175.115961,53.6857204 176.105328,55.3228283 C177.094695,56.9599362 180.015339,57.2640501 180.195224,60.837281 C180.270176,62.3846843 183.425658,57.3238532 183.425658,57.3238532 C183.425658,57.3238532 186.663587,65.6439493 194.765906,63.7078263 C200.762071,62.2875044 204,55.641893 204,55.641893 L194.301203,39.323142 L179.603103,38 L160.6003,39.0248395 L162.248792,49.8815279 Z" id="Shape" fill="#3F5188" fill-rule="nonzero"></path>
                            <path d="M183.103751,57.9235015 C182.965416,57.5331071 182.965416,57.1019363 183.103751,56.7115419 C183.865036,54.7754555 184.747274,53.3424467 186.220041,54.3104899 C187.849334,55.3700017 186.64693,60.7285401 185.159933,61.7575624 C183.523525,62.9237876 183.630247,59.5928043 183.103751,57.9235015 Z" id="Shape" fill="#FA6B72" fill-rule="nonzero"></path>
                            <path d="M169.5,65 C172.537566,65 175,62.3137085 175,59 C175,55.6862915 172.537566,53 169.5,53 C166.462434,53 164,55.6862915 164,59 C164,62.3137085 166.462434,65 169.5,65 Z" id="Oval" stroke="#3F5188"></path>
                            <path d="M164,60 L163,59" id="Line-2" stroke="#BBC9F6" stroke-linecap="square"></path>
                            <path d="M175,58.1899692 C179.689966,55.7386138 183.201206,54.3546692 185.53372,54.0381353 C187.866234,53.7216015 188.544246,55.3755563 187.567755,59" id="Line" stroke="#BBC9F6" stroke-linecap="square"></path>
                            <path d="M191,21 C192.890671,21.5212602 194.224005,22.0243889 195,22.5093861 C195.775995,22.9943833 197.109329,24.1579212 199,26" id="Line-5" stroke="#FFE02A" stroke-linecap="square"></path>
                            <polygon id="Star-2" fill="#FA6B72" points="198.377641 24.75 196.908178 25.5225425 197.188821 23.8862712 196 22.7274575 197.64291 22.4887288 198.377641 21 199.112373 22.4887288 200.755283 22.7274575 199.566462 23.8862712 199.847104 25.5225425"></polygon>
                            <polygon id="Star-2-Copy" fill="#FFE02A" points="196.377641 24.75 194.908178 25.5225425 195.188821 23.8862712 194 22.7274575 195.64291 22.4887288 196.377641 21 197.112373 22.4887288 198.755283 22.7274575 197.566462 23.8862712 197.847104 25.5225425"></polygon>
                            <g id="Legs2" transform="translate(0.000000, 147.000000)">
                                <polygon id="Rectangle-6" fill="#FFE0E2" points="123 115.169929 133.465766 113 132 127.561038 123 127.561038"></polygon>
                                <path d="M35.6262375,95.6138366 L48.5702921,97.8558212 L47.1045258,112.416859 L36.404623,114.899895 C37.322081,112.086204 37.7557152,110.057585 37.7055256,108.814036 C37.6553359,107.570487 36.9622399,103.170421 35.6262375,95.6138366 Z" id="Rectangle-6-Copy" fill="#FFE0E2" transform="translate(42.098265, 105.256866) rotate(36.000000) translate(-42.098265, -105.256866) "></path>
                                <path d="M41.0633444,96.4638117 L55.0583786,99.1034918 L51.4400774,103.407232 C47.893741,101.571401 45.6616044,100.447618 44.7436677,100.035882 C43.825731,99.6241468 42.3518145,98.9017288 40.3219182,97.8686283 L41.0633444,96.4638117 Z" id="Rectangle-7" fill="#FA6B72"></path>
                                <path d="M124.436383,111.937115 L134.396747,115.616787 L131.253623,119.884794 C130.343703,118.265466 129.399608,117.168254 128.421338,116.59316 C127.443068,116.018065 125.703366,115.208205 123.202233,114.16358 L124.436383,111.937115 Z" id="Rectangle-7-Copy" fill="#FA6B72" transform="translate(128.799490, 115.910954) rotate(-29.000000) translate(-128.799490, -115.910954) "></path>
                                <path d="M75.9921012,16.6874738 C90.3882156,3.51437767 111.579113,6 124.425963,6 C132.209315,6 143.034115,6.7331918 156.900363,8.19957541 L156.900363,8.19958056 C159.561772,8.48102994 161.906164,10.0746409 163.147075,12.445812 L175.54921,36.1441866 L175.549207,36.1441879 C177.597854,40.0588035 176.085187,44.8929824 172.170571,46.9416288 C170.535962,47.7970733 168.655923,48.061255 166.848859,47.6894318 C154.789197,45.2080244 145.848962,43.8093943 140.028156,43.4935414 C136.287824,43.2905808 99.9753273,38.1749699 98.0099871,39.5390565 C89.1267407,45.7046648 78.2963895,80.7230683 55.920096,105.004925 C54.7189438,102.400349 45.931089,97.9213961 42.545757,97.4605289 C38.8528203,96.5443351 38.8695592,98.8524973 39.5329936,97.4605289 C47.4555662,76.0010784 49.3627134,66.743182 54.0294675,55.809644 C56.6853325,49.5873316 61.5959868,29.8605698 75.9921012,16.6874738 Z" id="Rectangle-14" fill="#3F5188"></path>
                                <path d="M199.169529,46.1385152 C190.597944,52.1971957 162.861095,41.5270195 162.861095,41.5270195 L150,7.49943026 C150,7.49943026 155.047794,1.43325139 159.560329,0.638424493 C164.072863,-0.156402405 169.157828,-0.673789726 178.301844,2.01812401 C184.489289,3.80339446 190.513273,6.12141113 196.307378,8.94661509 C211.325242,30.0568366 207.741115,40.0798347 199.169529,46.1385152 Z" id="Shape" fill="#3F5188" fill-rule="nonzero"></path>
                                <path d="M156.360077,11.8785589 C177.747948,12.8672748 187.776591,19.6357065 197.206469,27.5173606 C206.636347,35.3990148 205.123044,41.4235513 201.447672,44.1184199 C197.7723,46.8132885 193.600326,57.91358 164.129372,52.0542689 C152.293344,49.7010717 146.729567,47.9633121 146.839075,50.0529504 C148.068573,73.5142181 139.543095,74.2216744 137.463175,115.056354 C129.577207,111.045987 120.933079,119.186461 118.170447,112.492375 C110.433617,63.4925491 114.17838,34.1586981 118.170447,27.5173606 C125.656527,15.0632619 134.972206,10.8898431 156.360077,11.8785589 Z" id="Rectangle-14" fill="#132763"></path>
                                <path d="M133.441786,126.5972 C134.758711,128.852565 133.566163,137.520682 131.729785,146.451925 C129.893407,155.383168 124.252581,165.539826 119.409226,166.441972 C109.049422,168.366549 110.285868,158.803804 112.575853,151.601674 C114.865838,144.399543 116.41224,138.135815 117.346045,135.731426 C118.692291,132.265074 119.409226,127.642469 121.344684,125.247321 C121.816066,124.663982 122.54016,125.230132 123.238909,125.735699 C127.051874,128.494501 133.441786,126.5972 133.441786,126.5972 Z" id="Shape" fill="#122769" fill-rule="nonzero"></path>
                                <path d="M36.0196963,105.508074 C37.4387937,104.379076 39.3776236,104.379076 40.796721,105.508074 C42.5705998,106.946321 44.8190691,108.208968 45.7838102,108.367844 C47.4020856,108.627063 48.6235724,113.017061 45.7838102,116.729744 C42.944048,120.442428 33.856809,126.697129 31.9895681,129.046823 C30.1223272,131.396517 16.4292273,144.098243 14.546426,145.00969 C12.6636248,145.921137 9.67603934,146.924565 9.0302852,145.962947 C8.38453105,145.001328 6.83627714,142.743615 9.35705236,140.034359 C11.8778276,137.325104 18.926662,125.484653 19.1678472,123.553055 C19.4090325,121.621456 21.0662088,111.085462 21.0662088,111.085462 L22.5133205,106.670379 C22.7249029,106.008583 23.2017122,105.483815 23.8122731,105.240773 C24.4228339,104.997731 25.1026575,105.062087 25.6642895,105.416094 C27.4848494,106.595121 30.1534478,107.849406 32.6664429,107.172093 C33.8745891,106.858137 35.0137978,106.292816 36.0196963,105.508074 Z" id="Shape" fill="#122769" fill-rule="nonzero" transform="translate(27.725792, 125.507641) rotate(26.000000) translate(-27.725792, -125.507641) "></path>
                            </g>
                        </g>
                        <g id="Desk">
                            <g id="Laptop" transform="translate(169.000000, 123.000000)">
                                <path d="M4.39701816,61.153407 L63.0039389,70.8547634 C67.3196333,71.5691516 75.987871,74.5761847 82.3649895,77.5711599 L96.7984826,84.3497627 C103.175601,87.3447379 104.846716,89.1935189 100.531021,88.4791308 L41.9241004,78.7777744 C37.6084059,78.0633862 28.9401683,75.0563531 22.5630497,72.0613779 L8.12955659,65.2827751 C1.75243807,62.2877999 0.081323688,60.4390189 4.39701816,61.153407 Z" id="Rectangle-9" fill="#3F5188"></path>
                                <path d="M5.63265306,0.10972824 L63.3673469,13.6590982 C66.4781753,14.3891578 69,18.56271 69,22.980988 L69,70.980988 C69,75.399266 66.4781753,78.3891578 63.3673469,77.6590982 L5.63265306,64.1097282 C2.52182467,63.3796687 0,59.2061165 0,54.7878385 L0,6.78783849 C0,2.36956049 2.52182467,-0.620331312 5.63265306,0.10972824 Z" id="Rectangle-8" fill="#7F98E3"></path>
                                <polygon id="Star" fill="#FFFFFF" points="32.5 44.25 28.0916106 46.5676275 28.9335381 41.6588137 25.3670761 38.1823725 30.2958053 37.4661863 32.5 33 34.7041947 37.4661863 39.6329239 38.1823725 36.0664619 41.6588137 36.9083894 46.5676275"></polygon>
                            </g>
                            <g id="Desktop" transform="translate(36.000000, 0.000000)">
                                <path d="M8,0.235236895 L152,35.2669625 C156.418278,36.3418229 160,40.7948914 160,45.2131694 L160,152.213169 C160,156.631447 156.418278,159.341823 152,158.266962 L8,123.235237 C3.581722,122.160376 0,117.707308 0,113.28903 L0,6.28902992 C0,1.87075192 3.581722,-0.839623538 8,0.235236895 Z" id="Rectangle-10" fill="#EBF0FF"></path>
                                <path d="M71.1473666,91.7618165 C72.3548299,90.2151991 72.1363268,99.5187958 72.1363268,101.202847 L42.8761271,161.19025 C44.1613022,164.608008 58.8825668,169.170674 65.9296769,171.544701 C68.7370838,172.490459 69.1840408,173.515637 67.9253385,173.369288 L35.6334505,166.286016 C32.5260661,165.652009 28,165.354699 28,161.552439 C28,160.321927 28.3832303,159.146402 29.1098056,158.144239 C54.3967522,117.396464 68.4092725,95.2689903 71.1473666,91.7618165 Z" id="Rectangle" fill="#D5DEFC"></path>
                                <path d="M4.75,3.03155406 L7.98486144,7.22388687 L7.98486144,7.22388687 C8.97178331,8.50292307 9.54834001,10.0507917 9.63865865,11.6637985 L14.9628121,106.748222 L14.9628121,106.748222 C15.0958313,109.123821 14.1645208,111.435357 12.4217486,113.055205 L7.58639426,117.549505 L7.58639426,117.549505 C5.76052621,119.246589 2.90460993,119.142188 1.20752673,117.31632 C0.431396853,116.481293 1.96795376e-14,115.3835 1.95399252e-14,114.243479 L4.54135762e-16,4.65109665 L1.77635684e-15,4.65109665 C9.46831154e-16,3.1869364 1.1869364,2 2.65109665,2 C3.47278703,2 4.24803318,2.38101245 4.75,3.03155406 Z" id="Rectangle-12" fill="#D5DEFC"></path>
                                <path d="M149.75,43.0315541 L152.984861,47.2238869 L152.984861,47.2238869 C153.971783,48.5029231 154.54834,50.0507917 154.638659,51.6637985 L159.962812,146.748222 L159.962812,146.748222 C160.095831,149.123821 159.164521,151.435357 157.421749,153.055205 L152.586394,157.549505 L152.586394,157.549505 C150.760526,159.246589 147.90461,159.142188 146.207527,157.31632 C145.431397,156.481293 145,155.3835 145,154.243479 L145,44.6510967 L145,44.6510967 C145,43.1869364 146.186936,42 147.651097,42 C148.472787,42 149.248033,42.3810125 149.75,43.0315541 Z" id="Rectangle-12-Copy" fill="#D5DEFC" transform="translate(152.487671, 100.378525) scale(-1, 1) translate(-152.487671, -100.378525) "></path>
                            </g>
                            <polygon id="Rectangle-11" fill="#EFEFEF" points="0 148 505 261.910467 505 271.910467 0 158"></polygon>
                        </g>
                    </g>
                    <g id="Plant-R/Y" transform="translate(372.000000, 105.000000)">
                        <g id="plant-red" transform="translate(79.950619, 162.737913) rotate(-12.000000) translate(-79.950619, -162.737913) translate(29.950619, 15.237913)">
                            <path d="M43.6070046,295 C69.0848555,295 54.6923237,266.867846 61.6845615,208.845424 C63.2398729,195.939264 100,168.126454 100,153.952022 C100,123.812108 75.5500623,106.701327 75.5500623,74.9046119 C75.5500623,58.762881 75.6441561,40.362167 74.4000282,26.0803255 C72.7179385,6.77094486 67.6835961,-0.248966884 59.4715438,0.583211699 C41.8752018,2.36635902 29.8079078,13.8847847 27.0224012,28.8562039 C26.0189578,34.2494678 32.1533012,43.5336233 28.9163324,54.7209595 C26.5493521,62.9015153 17.6071367,48.3673665 10.884328,50.8881387 C-10.455431,58.8896562 15.8821281,106.247111 13.0739926,112.133117 C3.43960074,132.327331 -2.23155619,126.936551 7.82411889,153.952022 C17.879794,180.967494 -1.92746584,189.333739 1.01136308,214.164373 C5.37998864,251.075587 24.9875516,295 43.6070046,295 Z" id="Oval-6" fill="#FFE02A"></path>
                            <path d="M15,69 C17.7946703,80.3692082 20.267217,87.9217451 22.41764,91.6576107 C26.9856365,99.5934545 39.7632503,113.726663 42.0190228,117.369772 C45.8676813,123.585417 49.0065207,133.283116 51.4355409,146.462869" id="Line-3" stroke="#FFFFFF" stroke-linecap="square"></path>
                            <path d="M21,149 C23.7946703,160.369208 26.267217,167.921745 28.41764,171.657611 C32.9856365,179.593454 45.7632503,193.726663 48.0190228,197.369772 C51.8676813,203.585417 55.0065207,213.283116 57.4355409,226.462869" id="Line-3-Copy" stroke="#FFFFFF" stroke-linecap="square"></path>
                            <path d="M36,190 C43.2339154,174.877827 50.3953392,164.14149 57.4842715,157.790988 C64.5732039,151.440487 73.41178,147.84349 84,147" id="Line-4" stroke="#FFFFFF" stroke-linecap="square"></path>
                            <path d="M43,80 C44.6476924,69.0060721 48.2759576,61.3435059 53.8847956,57.0123013 C59.4936337,52.6810968 62.1950529,48.6769963 61.9890532,45" id="Line-4-Copy" stroke="#FFFFFF" stroke-linecap="square"></path>
                            <circle id="Oval-7" stroke="#FFFFFF" cx="53" cy="18" r="4"></circle>
                            <circle id="Oval-7-Copy" stroke="#FFFFFF" cx="18" cy="143" r="3"></circle>
                            <path d="M48.5481764,25 C43.8384728,39.7882495 41.4836211,54.5149619 41.4836211,69.1801374 C41.4836211,85.5297915 53,102.9314 53,129.494426 C53,167.525199 36.5313051,169.002354 34.3280318,196.502007 C33.0648099,212.268624 35.4500063,239.101288 41.4836211,277" id="Line-2" stroke="#FFFFFF" stroke-linecap="square"></path>
                        </g>
                        <g id="plant-yellow" transform="translate(57.000000, 0.000000)">
                            <path d="M46.5,306 C72.0261946,306 57.6063533,276.88016 64.6118587,216.820642 C66.1701213,203.461363 103,174.672079 103,160 C103,128.80191 78.503669,111.090391 78.503669,78.177332 C78.503669,61.4688847 81.4253915,40.2082291 78.503669,27.8409876 C72.2544201,1.38879316 58.6079015,0.847399198 46.5,0.847399198 C28.8591509,0.847399198 22.9364276,20.8092094 23.8589498,52.7245519 C24.286507,67.5162115 10.8254795,83.2509733 3.8235341,98.413936 C-5.82913887,119.317144 10.7781991,139.690339 10.649217,160 C10.518969,180.508989 0.879128811,196.623926 3.8235341,222.326333 C8.20044904,260.533454 27.8452169,306 46.5,306 Z" id="Oval-6" fill="#FA6B72"></path>
                            <path d="M22,97 C32.7257222,102.938551 40.1525655,109.208532 44.2805297,115.809944 C48.4084939,122.411356 51.7073729,134.550481 54.1771667,152.227321" id="Line-3" stroke="#FFFFFF" stroke-linecap="square"></path>
                            <path d="M39,197.917829 C46.2057524,182.121197 53.3392955,170.906012 60.4006293,164.272274 C67.4619631,157.638535 76.2661291,153.881111 86.8131272,153" id="Line-4" stroke="#FFFFFF" stroke-linecap="square"></path>
                            <path d="M46.4979534,84.5386199 C48.4424378,67.1910432 52.7242475,55.1001002 59.3433825,48.2657909 C65.9625174,41.4314816 69.1505321,35.1133176 68.9074266,29.3112988" id="Line-4-Copy" stroke="#FFFFFF" stroke-linecap="square"></path>
                            <circle id="Oval-7" stroke="#FFFFFF" cx="52" cy="18" r="4"></circle>
                            <path d="M51.5,26.5 C46.8333333,41.8164012 44.5,57.0690677 44.5,72.2579995 C44.5,89.1915698 55.9111432,107.214664 55.9111432,134.72637 C55.9111432,174.115385 39.5929378,175.645295 37.4097979,204.127079 C36.1581191,220.456789 38.5215198,248.247762 44.5,287.5" id="Line-2" stroke="#FFFFFF" stroke-linecap="square"></path>
                        </g>
                    </g>
                </g>
            </g>
        </g>
    </g>
</svg>